<svg xmlns="http://www.w3.org/2000/svg" viewBox="0 0 495.04 495.04"><defs><style>.cls-1{fill:#c7be9c;}.cls-2{fill:#a38758;}</style></defs><g id="Layer_2" data-name="Layer 2"><g id="Layer_1-2" data-name="Layer 1"><circle class="cls-1" cx="247.52" cy="247.52" r="247.52"/><g id="_29" data-name="29"><g id="fourteen"><path class="cls-2" d="M80.64,273.91l97.81-97.31a10,10,0,0,1,13.68-.44l52.1,45.56-95.55,27.16a13.24,13.24,0,0,0-9.31,15.54L163,372.73,80.54,288.54A10.38,10.38,0,0,1,80.64,273.91Z"/><path class="cls-2" d="M95.68,235.7,128.5,123.79a11.6,11.6,0,0,1,14.16-7.93l135.21,36.62a11.6,11.6,0,0,1,8.2,14.05l-16.42,64.66-22.93-17.6L187.6,162.71a12.22,12.22,0,0,0-16.43.45Z"/><path class="cls-2" d="M176.34,114.61l114-27.21a13.81,13.81,0,0,1,16.5,9.68l36.43,129a13.8,13.8,0,0,1-9.58,17.06l-61.56,17.16,18.5-99.18a12,12,0,0,0-8.26-13.7Z"/><path class="cls-2" d="M327.73,114.06c4.81,3.56,56.15,57,83.12,85.17a23.84,23.84,0,0,1-.61,33.58l-80.26,78a23.45,23.45,0,0,1-32.44.24l-43.08-40.67,85.44-23.54a13.4,13.4,0,0,0,9.61-15.36Z"/><path class="cls-2" d="M396.81,262.37l-27.6,107.89a18.25,18.25,0,0,1-23.1,12.9L226.67,346a18.24,18.24,0,0,1-12.36-21.49l14.23-62.13L302,327.27a14.89,14.89,0,0,0,19.61.11Z"/><path class="cls-2" d="M322.6,376.9,221.08,412.77a18.71,18.71,0,0,1-24.1-12.1L155.54,267.11l75.18-27.23-10.79,34.2-10.45,47.66a25.29,25.29,0,0,0,18.19,29.85Z"/></g></g></g></g></svg>