<?xml version="1.0" encoding="UTF-8"?>
<svg id="Layer_2" data-name="Layer 2" xmlns="http://www.w3.org/2000/svg" viewBox="0 0 339.89 326.83">
  <defs>
    <style>
      .cls-1 {
        fill: #414042;
        stroke-width: 0px;
      }
    </style>
  </defs>
  <g id="Layer_1-2" data-name="Layer 1">
    <g id="_29" data-name="29">
      <g id="fourteen">
        <path class="cls-1" d="m3.06,186.89l97.82-97.32c3.73-3.72,9.71-3.91,13.67-.44l52.11,45.56-95.55,27.16c-6.72,1.91-10.79,8.71-9.31,15.54l23.6,108.31L2.97,201.53c-3.99-4.08-3.95-10.61.1-14.63Z"/>
        <path class="cls-1" d="m18.1,148.68L50.93,36.77c1.78-6.05,8.07-9.58,14.15-7.93l135.21,36.62c6.11,1.66,9.76,7.91,8.21,14.04l-16.43,64.67-22.92-17.6-59.12-50.88c-4.77-4.11-11.89-3.91-16.43.45L18.1,148.68Z"/>
        <path class="cls-1" d="m98.77,27.59L212.77.38c7.21-1.72,14.49,2.55,16.5,9.68l36.43,129.04c2.08,7.36-2.22,15-9.58,17.06l-61.56,17.16,18.5-99.18c1.12-6-2.43-11.89-8.27-13.7L98.77,27.59Z"/>
        <path class="cls-1" d="m250.15,27.04c4.81,3.56,56.15,57,83.12,85.17,9.06,9.46,8.78,24.45-.61,33.58l-80.26,77.98c-9.01,8.75-23.31,8.85-32.44.24l-43.09-40.67,85.44-23.54c6.71-1.85,10.89-8.52,9.62-15.36l-21.78-117.4Z"/>
        <path class="cls-1" d="m319.23,175.35l-27.61,107.89c-2.59,10.12-13.12,16-23.09,12.9l-119.44-37.17c-9.1-2.83-14.49-12.2-12.36-21.49l14.24-62.13,73.4,64.9c5.59,4.94,13.97,4.99,19.61.11l75.25-65.01Z"/>
        <path class="cls-1" d="m245.02,289.88l-101.51,35.87c-10.01,3.54-20.96-1.96-24.1-12.1l-41.44-133.57,75.18-27.23-10.8,34.2-10.45,47.66c-2.9,13.21,5.12,26.37,18.19,29.85l94.92,25.3Z"/>
      </g>
    </g>
  </g>
</svg>