<?xml version="1.0" encoding="UTF-8"?>
<svg id="Layer_2" data-name="Layer 2" xmlns="http://www.w3.org/2000/svg" viewBox="0 0 564.45 471.59">
  <defs>
    <style>
      .cls-1 {
        fill: #fff;
        stroke-width: 0px;
      }
    </style>
  </defs>
  <g id="Layer_1-2" data-name="Layer 1">
    <g id="_58" data-name="58">
      <path class="cls-1" d="m564.45,154.31v5.95c-1.87-.14-3.76-.22-5.68-.22h-89.43c-37.57,0-68.03,28.05-68.03,62.65v97.14h-3.74c.01-.33.01-.67.01-1.01v-97.1c0-34.6-30.46-62.66-68.04-62.66h-89.43c-1.02,0-2.04.02-3.05.06v-4.21c4.74.97,9.67,1.48,14.73,1.48h77.57c37.67,0,68.21-28.13,68.21-62.82V0h3.6v93.58c0,34.69,30.54,62.82,68.21,62.82h77.57c6.04,0,11.9-.72,17.48-2.09Z"/>
      <path class="cls-1" d="m474.15,231.85v8.62c-2.71-.21-5.45-.31-8.23-.31h-129.52c-54.42,0-98.53,40.63-98.53,90.74v140.7h-5.41c.02-.48.02-.97.02-1.46v-140.63c0-50.11-44.12-90.75-98.54-90.75H4.42c-1.48,0-2.96.03-4.42.09v-6.1c6.87,1.4,14.01,2.14,21.34,2.14h112.35c54.56,0,98.79-40.74,98.79-90.98V8.35h5.21v135.54c0,50.25,44.23,90.98,98.79,90.98h112.35c8.75,0,17.24-1.05,25.32-3.02Z"/>
    </g>
  </g>
</svg>